<svg xmlns="http://www.w3.org/2000/svg" width="900" height="300" viewBox="0 0 900 300" fill="none"><g transform="translate(13 0) scale(6)" fill="none"><circle cx="16" cy="31" r="9" stroke="#F2F1EC" stroke-width="5"/><path d="M25 42.5V17a7 7 0 0 1 7-7h7.5" stroke="#F2F1EC" stroke-width="5"/><path d="M25 24h9.5" stroke="#F2F1EC" stroke-width="5"/><rect x="34.5" y="37.5" width="5" height="5" fill="#8b6cff"/></g>
<rect x="306" y="70" width="2" height="160" fill="rgba(242,241,236,.18)"/>
<g transform="translate(362 142)"><path transform="translate(0 0) scale(0.092 -0.092)" d="M211 -12Q133 -12 88.5 29Q44 70 44 136Q44 203 92 243.5Q140 284 226 291L380 303L380 317Q380 358 365 382.5Q350 407 324 417.5Q298 428 265 428Q206 428 173.5 403.5Q141 379 141 334L59 334Q59 385 85 423Q111 461 158.5 482Q206 503 269 503Q330 503 375.5 481.5Q421 460 446.5 416.5Q472 373 472 307L472 0L392 0L382 79Q363 37 316.5 12.5Q270 -12 211 -12ZM238 61Q305 61 343 101.5Q381 142 381 211L381 237L256 227Q194 221 166.5 198Q139 175 139 139Q139 100 165.5 80.5Q192 61 238 61Z" fill="#F2F1EC"/><path transform="translate(45.68 0) scale(0.092 -0.092)" d="M16 489L298 489L298 410L16 410ZM301 732L301 651Q292 651 281.5 651Q271 651 259 651Q213 651 197.5 629Q182 607 182 567L182 0L88 0L88 567Q88 627 108.5 664.5Q129 702 163.5 719Q198 736 243 736Q257 736 272 735Q287 734 301 732Z" fill="#F2F1EC"/><path transform="translate(72.42 0) scale(0.092 -0.092)" d="M16 489L302 489L302 410L16 410ZM206 0L112 0L112 642L206 642Z" fill="#F2F1EC"/><path transform="translate(97.98 0) scale(0.092 -0.092)" d="M36 245Q36 320 69 378Q102 436 159.5 469Q217 502 291 502Q365 502 422 469Q479 436 512 378Q545 320 545 245Q545 170 512 112Q479 54 422 21Q365 -12 291 -12Q217 -12 159.5 21Q102 54 69 112Q36 170 36 245ZM131 245Q131 194 151.5 155Q172 116 208 94Q244 72 291 72Q338 72 374 94Q410 116 430.5 155Q451 194 451 245Q451 297 430.5 335.5Q410 374 374 396Q338 418 291 418Q244 418 208 396Q172 374 151.5 335.5Q131 297 131 245Z" fill="#F2F1EC"/><path transform="translate(145.46 0) scale(0.092 -0.092)" d="M138 -12Q109 -12 87.5 8.5Q66 29 66 58Q66 88 87.5 108.5Q109 129 138 129Q167 129 188 108.5Q209 88 209 58Q209 29 188 8.5Q167 -12 138 -12Z" fill="#8b6cff"/><path transform="translate(160.34 0) scale(0.092 -0.092)" d="M173 0L13 489L110 489L191 235Q200 208 207 179.5Q214 151 221 119Q225 141 230.5 161.5Q236 182 242 200.5Q248 219 253 235L335 489L431 489L512 235Q516 226 519.5 211.5Q523 197 528 181Q533 165 537 149Q541 133 544 119Q548 139 552.5 157.5Q557 176 562.5 194.5Q568 213 575 235L657 489L755 489L588 0L499 0L414 262Q402 299 394.5 327.5Q387 356 383 376Q379 358 371.5 331.5Q364 305 351 261L266 0Z" fill="#F2F1EC"/><path transform="translate(225.71 0) scale(0.092 -0.092)" d="M36 245Q36 320 69 378Q102 436 159.5 469Q217 502 291 502Q365 502 422 469Q479 436 512 378Q545 320 545 245Q545 170 512 112Q479 54 422 21Q365 -12 291 -12Q217 -12 159.5 21Q102 54 69 112Q36 170 36 245ZM131 245Q131 194 151.5 155Q172 116 208 94Q244 72 291 72Q338 72 374 94Q410 116 430.5 155Q451 194 451 245Q451 297 430.5 335.5Q410 374 374 396Q338 418 291 418Q244 418 208 396Q172 374 151.5 335.5Q131 297 131 245Z" fill="#F2F1EC"/><path transform="translate(275.95 0) scale(0.092 -0.092)" d="M348 493L348 407L306 407Q239 407 200.5 368.5Q162 330 162 259L162 0L68 0L68 488L156 488L164 390L155 390Q165 438 203 468.5Q241 499 298 499Q311 499 322.5 497.5Q334 496 348 493Z" fill="#F2F1EC"/><path transform="translate(306.55 0) scale(0.092 -0.092)" d="M164 0L70 0L70 736L164 736L164 259L381 489L499 489L312 294L498 0L390 0L247 226L164 139Z" fill="#F2F1EC"/><path transform="translate(350.4 0) scale(0.092 -0.092)" d="M28 142L118 142Q118 105 145 83.5Q172 62 218 62Q268 62 295 81.5Q322 101 322 134Q322 158 307.5 174Q293 190 255 200L169 220Q104 236 72.5 269Q41 302 41 356Q41 401 64.5 434Q88 467 129.5 485Q171 503 225 503Q279 503 318.5 484Q358 465 380.5 431Q403 397 404 350L314 350Q313 388 289 409Q265 430 222 430Q178 430 154 411Q130 392 130 359Q130 310 202 292L288 271Q350 257 381 225.5Q412 194 412 140Q412 94 387 59.5Q362 25 318.5 6.5Q275 -12 216 -12Q130 -12 79 30Q28 72 28 142Z" fill="#F2F1EC"/></g>
<g transform="translate(364 204)"><path transform="translate(0 0) scale(0.034 -0.034)" d="M182 723L182 0L84 0L84 723ZM365 258L160 258L160 346L344 346Q417 346 456 385.5Q495 425 495 492Q495 560 456 597.5Q417 635 348 635L138 635L138 723L365 723Q436 723 488 694Q540 665 569 613Q598 561 598 491Q598 424 569 371Q540 318 488 288Q436 258 365 258Z" fill="#9B98A8"/><path transform="translate(20.92 0) scale(0.034 -0.034)" d="M348 493L348 407L306 407Q239 407 200.5 368.5Q162 330 162 259L162 0L68 0L68 488L156 488L164 390L155 390Q165 438 203 468.5Q241 499 298 499Q311 499 322.5 497.5Q334 496 348 493Z" fill="#9B98A8"/><path transform="translate(32.48 0) scale(0.034 -0.034)" d="M36 245Q36 320 69 378Q102 436 159.5 469Q217 502 291 502Q365 502 422 469Q479 436 512 378Q545 320 545 245Q545 170 512 112Q479 54 422 21Q365 -12 291 -12Q217 -12 159.5 21Q102 54 69 112Q36 170 36 245ZM131 245Q131 194 151.5 155Q172 116 208 94Q244 72 291 72Q338 72 374 94Q410 116 430.5 155Q451 194 451 245Q451 297 430.5 335.5Q410 374 374 396Q338 418 291 418Q244 418 208 396Q172 374 151.5 335.5Q131 297 131 245Z" fill="#9B98A8"/><path transform="translate(51.9 0) scale(0.034 -0.034)" d="M-56 -222L-40 -137Q-26 -141 -16 -142.5Q-6 -144 5 -144Q39 -144 53.5 -124Q68 -104 68 -63L68 489L162 489L162 -72Q162 -145 123 -188Q84 -231 13 -231Q-5 -231 -20 -229Q-35 -227 -56 -222ZM115 605Q89 605 71 623.5Q53 642 53 667Q53 693 71 711Q89 729 115 729Q140 729 158.5 711Q177 693 177 667Q177 642 158.5 623.5Q140 605 115 605Z" fill="#9B98A8"/><path transform="translate(59.37 0) scale(0.034 -0.034)" d="M279 -12Q208 -12 153 20.5Q98 53 67 110.5Q36 168 36 244Q36 321 66.5 379Q97 437 150.5 470Q204 503 275 503Q345 503 396.5 473Q448 443 476.5 389Q505 335 505 262L505 227L86 226L88 289L411 289Q411 350 374 387Q337 424 275 424Q228 424 194.5 403.5Q161 383 143.5 343.5Q126 304 126 249Q126 161 166 113.5Q206 66 281 66Q336 66 371 88Q406 110 418 152L506 152Q488 74 429 31Q370 -12 279 -12Z" fill="#9B98A8"/><path transform="translate(77.45 0) scale(0.034 -0.034)" d="M164 0L70 0L70 736L164 736L164 259L381 489L499 489L312 294L498 0L390 0L247 226L164 139Z" fill="#9B98A8"/><path transform="translate(94.39 0) scale(0.034 -0.034)" d="M16 489L302 489L302 410L16 410ZM206 0L112 0L112 642L206 642Z" fill="#9B98A8"/><path transform="translate(104.69 0) scale(0.034 -0.034)" d="M36 245Q36 320 69 378Q102 436 159.5 469Q217 502 291 502Q365 502 422 469Q479 436 512 378Q545 320 545 245Q545 170 512 112Q479 54 422 21Q365 -12 291 -12Q217 -12 159.5 21Q102 54 69 112Q36 170 36 245ZM131 245Q131 194 151.5 155Q172 116 208 94Q244 72 291 72Q338 72 374 94Q410 116 430.5 155Q451 194 451 245Q451 297 430.5 335.5Q410 374 374 396Q338 418 291 418Q244 418 208 396Q172 374 151.5 335.5Q131 297 131 245Z" fill="#9B98A8"/><path transform="translate(123.35 0) scale(0.034 -0.034)" d="M173 0L13 489L110 489L191 235Q200 208 207 179.5Q214 151 221 119Q225 141 230.5 161.5Q236 182 242 200.5Q248 219 253 235L335 489L431 489L512 235Q516 226 519.5 211.5Q523 197 528 181Q533 165 537 149Q541 133 544 119Q548 139 552.5 157.5Q557 176 562.5 194.5Q568 213 575 235L657 489L755 489L588 0L499 0L414 262Q402 299 394.5 327.5Q387 356 383 376Q379 358 371.5 331.5Q364 305 351 261L266 0Z" fill="#9B98A8"/><path transform="translate(148.36 0) scale(0.034 -0.034)" d="M211 -12Q133 -12 88.5 29Q44 70 44 136Q44 203 92 243.5Q140 284 226 291L380 303L380 317Q380 358 365 382.5Q350 407 324 417.5Q298 428 265 428Q206 428 173.5 403.5Q141 379 141 334L59 334Q59 385 85 423Q111 461 158.5 482Q206 503 269 503Q330 503 375.5 481.5Q421 460 446.5 416.5Q472 373 472 307L472 0L392 0L382 79Q363 37 316.5 12.5Q270 -12 211 -12ZM238 61Q305 61 343 101.5Q381 142 381 211L381 237L256 227Q194 221 166.5 198Q139 175 139 139Q139 100 165.5 80.5Q192 61 238 61Z" fill="#9B98A8"/><path transform="translate(166.18 0) scale(0.034 -0.034)" d="M162 0L68 0L68 489L153 489L163 414Q186 456 229.5 479.5Q273 503 325 503Q421 503 467 448Q513 393 513 299L513 0L419 0L419 278Q419 352 387 384.5Q355 417 301 417Q235 417 198.5 374Q162 331 162 259Z" fill="#9B98A8"/><path transform="translate(185.38 0) scale(0.034 -0.034)" d="M68 0L68 489L162 489L162 0ZM114 605Q89 605 70.5 623.5Q52 642 52 667Q52 693 70.5 711Q89 729 114 729Q140 729 158 711Q176 693 176 667Q176 642 158 623.5Q140 605 114 605Z" fill="#9B98A8"/><path transform="translate(192.85 0) scale(0.034 -0.034)" d="M279 -12Q208 -12 153 20.5Q98 53 67 110.5Q36 168 36 244Q36 321 66.5 379Q97 437 150.5 470Q204 503 275 503Q345 503 396.5 473Q448 443 476.5 389Q505 335 505 262L505 227L86 226L88 289L411 289Q411 350 374 387Q337 424 275 424Q228 424 194.5 403.5Q161 383 143.5 343.5Q126 304 126 249Q126 161 166 113.5Q206 66 281 66Q336 66 371 88Q406 110 418 152L506 152Q488 74 429 31Q370 -12 279 -12Z" fill="#9B98A8"/><path transform="translate(219.89 0) scale(0.034 -0.034)" d="M28 142L118 142Q118 105 145 83.5Q172 62 218 62Q268 62 295 81.5Q322 101 322 134Q322 158 307.5 174Q293 190 255 200L169 220Q104 236 72.5 269Q41 302 41 356Q41 401 64.5 434Q88 467 129.5 485Q171 503 225 503Q279 503 318.5 484Q358 465 380.5 431Q403 397 404 350L314 350Q313 388 289 409Q265 430 222 430Q178 430 154 411Q130 392 130 359Q130 310 202 292L288 271Q350 257 381 225.5Q412 194 412 140Q412 94 387 59.5Q362 25 318.5 6.5Q275 -12 216 -12Q130 -12 79 30Q28 72 28 142Z" fill="#9B98A8"/><path transform="translate(234.77 0) scale(0.034 -0.034)" d="M16 489L302 489L302 410L16 410ZM206 0L112 0L112 642L206 642Z" fill="#9B98A8"/><path transform="translate(245.24 0) scale(0.034 -0.034)" d="M348 493L348 407L306 407Q239 407 200.5 368.5Q162 330 162 259L162 0L68 0L68 488L156 488L164 390L155 390Q165 438 203 468.5Q241 499 298 499Q311 499 322.5 497.5Q334 496 348 493Z" fill="#9B98A8"/><path transform="translate(256.79 0) scale(0.034 -0.034)" d="M36 245Q36 320 69 378Q102 436 159.5 469Q217 502 291 502Q365 502 422 469Q479 436 512 378Q545 320 545 245Q545 170 512 112Q479 54 422 21Q365 -12 291 -12Q217 -12 159.5 21Q102 54 69 112Q36 170 36 245ZM131 245Q131 194 151.5 155Q172 116 208 94Q244 72 291 72Q338 72 374 94Q410 116 430.5 155Q451 194 451 245Q451 297 430.5 335.5Q410 374 374 396Q338 418 291 418Q244 418 208 396Q172 374 151.5 335.5Q131 297 131 245Z" fill="#9B98A8"/><path transform="translate(276.21 0) scale(0.034 -0.034)" d="M162 0L68 0L68 489L153 489L163 414Q186 456 229.5 479.5Q273 503 325 503Q421 503 467 448Q513 393 513 299L513 0L419 0L419 278Q419 352 387 384.5Q355 417 301 417Q235 417 198.5 374Q162 331 162 259Z" fill="#9B98A8"/><path transform="translate(304.36 0) scale(0.034 -0.034)" d="M68 0L68 489L162 489L162 0ZM114 605Q89 605 70.5 623.5Q52 642 52 667Q52 693 70.5 711Q89 729 114 729Q140 729 158 711Q176 693 176 667Q176 642 158 623.5Q140 605 114 605Z" fill="#9B98A8"/><path transform="translate(320.79 0) scale(0.034 -0.034)" d="M68 0L68 489L162 489L162 0ZM114 605Q89 605 70.5 623.5Q52 642 52 667Q52 693 70.5 711Q89 729 114 729Q140 729 158 711Q176 693 176 667Q176 642 158 623.5Q140 605 114 605Z" fill="#9B98A8"/><path transform="translate(328.26 0) scale(0.034 -0.034)" d="M264 -12Q193 -12 142 20.5Q91 53 63.5 111Q36 169 36 243Q36 318 64 376.5Q92 435 144 469Q196 503 268 503Q325 503 369.5 479.5Q414 456 439 410L439 736L532 736L532 0L448 0L440 89Q416 40 369.5 14Q323 -12 264 -12ZM283 73Q331 73 365.5 95Q400 117 419 156Q438 195 438 246Q438 297 419 335.5Q400 374 365.5 396Q331 418 283 418Q235 418 201 395.5Q167 373 149 334.5Q131 296 131 246Q131 195 149 156Q167 117 201 95Q235 73 283 73Z" fill="#9B98A8"/><path transform="translate(348.32 0) scale(0.034 -0.034)" d="M279 -12Q208 -12 153 20.5Q98 53 67 110.5Q36 168 36 244Q36 321 66.5 379Q97 437 150.5 470Q204 503 275 503Q345 503 396.5 473Q448 443 476.5 389Q505 335 505 262L505 227L86 226L88 289L411 289Q411 350 374 387Q337 424 275 424Q228 424 194.5 403.5Q161 383 143.5 343.5Q126 304 126 249Q126 161 166 113.5Q206 66 281 66Q336 66 371 88Q406 110 418 152L506 152Q488 74 429 31Q370 -12 279 -12Z" fill="#9B98A8"/><path transform="translate(366.41 0) scale(0.034 -0.034)" d="M162 0L68 0L68 489L153 489L163 414Q186 456 229.5 479.5Q273 503 325 503Q421 503 467 448Q513 393 513 299L513 0L419 0L419 278Q419 352 387 384.5Q355 417 301 417Q235 417 198.5 374Q162 331 162 259Z" fill="#9B98A8"/><path transform="translate(385.61 0) scale(0.034 -0.034)" d="M16 489L302 489L302 410L16 410ZM206 0L112 0L112 642L206 642Z" fill="#9B98A8"/><path transform="translate(396.08 0) scale(0.034 -0.034)" d="M107 489L279 13L221 -67L8 489ZM21 -219L21 -142L84 -142Q107 -142 126 -137.5Q145 -133 161 -118.5Q177 -104 188 -73L394 489L491 489L260 -110Q235 -173 197 -201Q159 -229 103 -229Q80 -229 60 -226.5Q40 -224 21 -219Z" fill="#9B98A8"/><path transform="translate(412.68 0) scale(0.034 -0.034)" d="M16 489L298 489L298 410L16 410ZM301 732L301 651Q292 651 281.5 651Q271 651 259 651Q213 651 197.5 629Q182 607 182 567L182 0L88 0L88 567Q88 627 108.5 664.5Q129 702 163.5 719Q198 736 243 736Q257 736 272 735Q287 734 301 732Z" fill="#9B98A8"/><path transform="translate(423.11 0) scale(0.034 -0.034)" d="M68 0L68 489L162 489L162 0ZM114 605Q89 605 70.5 623.5Q52 642 52 667Q52 693 70.5 711Q89 729 114 729Q140 729 158 711Q176 693 176 667Q176 642 158 623.5Q140 605 114 605Z" fill="#9B98A8"/><path transform="translate(430.58 0) scale(0.034 -0.034)" d="M164 0L70 0L70 736L164 736L164 259L381 489L499 489L312 294L498 0L390 0L247 226L164 139Z" fill="#9B98A8"/><path transform="translate(447.12 0) scale(0.034 -0.034)" d="M211 -12Q133 -12 88.5 29Q44 70 44 136Q44 203 92 243.5Q140 284 226 291L380 303L380 317Q380 358 365 382.5Q350 407 324 417.5Q298 428 265 428Q206 428 173.5 403.5Q141 379 141 334L59 334Q59 385 85 423Q111 461 158.5 482Q206 503 269 503Q330 503 375.5 481.5Q421 460 446.5 416.5Q472 373 472 307L472 0L392 0L382 79Q363 37 316.5 12.5Q270 -12 211 -12ZM238 61Q305 61 343 101.5Q381 142 381 211L381 237L256 227Q194 221 166.5 198Q139 175 139 139Q139 100 165.5 80.5Q192 61 238 61Z" fill="#9B98A8"/><path transform="translate(464.95 0) scale(0.034 -0.034)" d="M36 244Q36 321 66.5 379Q97 437 151 470Q205 503 276 503Q368 503 429 454Q490 405 502 324L408 324Q396 371 361 395Q326 419 279 419Q235 419 201 397.5Q167 376 148 337Q129 298 129 245Q129 192 147 153.5Q165 115 198 93.5Q231 72 275 72Q325 72 361 97Q397 122 409 165L503 165Q494 112 462.5 72.5Q431 33 382.5 10.5Q334 -12 275 -12Q203 -12 149.5 20Q96 52 66 109.5Q36 167 36 244Z" fill="#9B98A8"/><path transform="translate(482.78 0) scale(0.034 -0.034)" d="M-56 -222L-40 -137Q-26 -141 -16 -142.5Q-6 -144 5 -144Q39 -144 53.5 -124Q68 -104 68 -63L68 489L162 489L162 -72Q162 -145 123 -188Q84 -231 13 -231Q-5 -231 -20 -229Q-35 -227 -56 -222ZM115 605Q89 605 71 623.5Q53 642 53 667Q53 693 71 711Q89 729 115 729Q140 729 158.5 711Q177 693 177 667Q177 642 158.5 623.5Q140 605 115 605Z" fill="#9B98A8"/><path transform="translate(490.25 0) scale(0.034 -0.034)" d="M68 0L68 489L162 489L162 0ZM114 605Q89 605 70.5 623.5Q52 642 52 667Q52 693 70.5 711Q89 729 114 729Q140 729 158 711Q176 693 176 667Q176 642 158 623.5Q140 605 114 605Z" fill="#9B98A8"/></g></svg>